<svg id="cmn_logo01" xmlns="http://www.w3.org/2000/svg" width="191.073" height="77.015" viewBox="0 0 191.073 77.015">
  <path id="パス_9" data-name="パス 9" d="M73.33,16.994H89.924V22.02H78.785v5.026H89.093v5.026H78.785v9.633h-5.45Zm27.208,0h5.451V41.706h-5.451Zm16.6,0h9.571a16.966,16.966,0,0,1,3.576.366,8.544,8.544,0,0,1,2.97,1.221,6.1,6.1,0,0,1,2.024,2.3,7.79,7.79,0,0,1,.752,3.613,7.247,7.247,0,0,1-1.363,4.45,6.136,6.136,0,0,1-3.988,2.32L136.971,41.7h-6.534l-5.169-9.878h-2.69V41.7h-5.45Zm5.45,10.226H125.8q.733,0,1.555-.052a4.856,4.856,0,0,0,1.484-.314,2.558,2.558,0,0,0,1.1-.825,2.5,2.5,0,0,0,.436-1.57,2.613,2.613,0,0,0-.384-1.5,2.572,2.572,0,0,0-.978-.854,4.336,4.336,0,0,0-1.361-.4,11.2,11.2,0,0,0-1.5-.1h-3.565Zm23.616-10.226h16.8V22.02H151.652v4.607h10.727v5.026H151.652V36.68h11.983v5.026H146.206ZM82.024,55.707a2.629,2.629,0,0,0-.972-.74,3.234,3.234,0,0,0-1.335-.259,3.345,3.345,0,0,0-2.523,1.11,3.807,3.807,0,0,0-.74,1.247,4.74,4.74,0,0,0,0,3.141,3.939,3.939,0,0,0,.732,1.238,3.327,3.327,0,0,0,1.093.818,3.163,3.163,0,0,0,1.352.292,3.032,3.032,0,0,0,1.465-.344,2.9,2.9,0,0,0,1.051-.963l2.24,1.669a4.655,4.655,0,0,1-1.964,1.6,6.069,6.069,0,0,1-2.445.516,7.518,7.518,0,0,1-2.636-.447A6.058,6.058,0,0,1,75.255,63.3a5.828,5.828,0,0,1-1.375-2.023,7.393,7.393,0,0,1,0-5.3,5.835,5.835,0,0,1,1.375-2.022,6.058,6.058,0,0,1,2.085-1.282,7.518,7.518,0,0,1,2.636-.447,6.55,6.55,0,0,1,1.077.094,5.862,5.862,0,0,1,1.1.3,4.932,4.932,0,0,1,1.044.55,4.125,4.125,0,0,1,.9.843Zm10.559-3.171H95.27v9.706h4.978v2.475H92.583Zm16.483,0h2.687V64.719h-2.687Zm11.684,0H124.4L129.587,61h.034V52.536h2.687V64.719h-3.514l-5.323-8.673h-.034v8.673h-2.687Zm20.55,0h2.687V64.719H141.3Zm19.982,3.171a2.629,2.629,0,0,0-.972-.74,3.234,3.234,0,0,0-1.335-.259,3.345,3.345,0,0,0-2.524,1.11,3.807,3.807,0,0,0-.74,1.247,4.741,4.741,0,0,0,0,3.141,3.938,3.938,0,0,0,.732,1.238,3.325,3.325,0,0,0,1.093.818,3.171,3.171,0,0,0,1.353.292,3.026,3.026,0,0,0,1.463-.344,2.918,2.918,0,0,0,1.052-.963l2.239,1.669a4.655,4.655,0,0,1-1.964,1.6,6.059,6.059,0,0,1-2.445.516,7.5,7.5,0,0,1-2.635-.447,6.031,6.031,0,0,1-2.085-1.282,5.833,5.833,0,0,1-1.375-2.023,7.414,7.414,0,0,1,0-5.3,5.839,5.839,0,0,1,1.375-2.022,6.031,6.031,0,0,1,2.085-1.282,7.5,7.5,0,0,1,2.635-.447,6.551,6.551,0,0,1,1.077.094,5.914,5.914,0,0,1,1.1.3,4.951,4.951,0,0,1,1.042.55,4.126,4.126,0,0,1,.9.843Z" transform="translate(27.431 6.376)" fill="#aeb7c2"/>
  <path id="パス_10" data-name="パス 10" d="M29.019,38.563a11.868,11.868,0,0,1,11.86-11.847h8.893a35.391,35.391,0,0,0,14.721-3.188,15.042,15.042,0,0,1-15.05,15.035Z" transform="translate(10.806 8.828)" fill="#dd3a76"/>
  <path id="パス_11" data-name="パス 11" d="M63.609,8.885H49.5a29.634,29.634,0,0,0-29.646,29.62v6.432a20.215,20.215,0,0,1-5.929,14.3H16.9A11.85,11.85,0,0,0,28.751,47.391,17.781,17.781,0,0,1,46.539,29.619h8.895A29.633,29.633,0,0,0,85.08,0,30.381,30.381,0,0,1,63.609,8.885Z" transform="translate(5.144 0)" fill="#dd3a76"/>
  <path id="パス_12" data-name="パス 12" d="M29.624,54.384a11.845,11.845,0,0,1-4.483-22.813,29.491,29.491,0,0,1,8.16-18.4,29.605,29.605,0,1,0,25.376,35.29H39.885a11.846,11.846,0,0,1-10.26,5.926Z" transform="translate(-0.059 4.855)" fill="#aeb7c2"/>
</svg>
